<?xml version="1.0" encoding="utf-8"?>
<svg version="1.1" id="Layer_1" xmlns="http://www.w3.org/2000/svg" xmlns:xlink="http://www.w3.org/1999/xlink" x="0px" y="0px"
	 viewBox="0 0 1674 1674" enable-background="new 0 0 1674 1674" xml:space="preserve">
<g>
	<g>
		
			<rect x="455.659" y="392.621" transform="matrix(0.5529 0.8332 -0.8332 0.5529 649.014 -179.1591)" width="71.591" height="245.153"/>
	</g>
	<g>
		
			<rect x="1058.375" y="479.402" transform="matrix(0.8379 0.5458 -0.5458 0.8379 472.8658 -561.9272)" width="248.343" height="71.59"/>
	</g>
	<g>
		<circle cx="549.682" cy="677.47" r="66.818"/>
	</g>
	<g>
		<circle cx="1115.728" cy="677.47" r="66.818"/>
	</g>
	<g>
		<path d="M837,1637c-107.984,0-212.756-21.157-311.407-62.883c-95.268-40.295-180.819-97.973-254.279-171.432
			c-73.459-73.459-131.137-159.01-171.432-254.278C58.157,1049.757,37,944.984,37,837s21.157-212.756,62.883-311.407
			c40.295-95.268,97.973-180.819,171.432-254.279c73.46-73.459,159.011-131.137,254.279-171.432C624.244,58.157,729.016,37,837,37
			s212.757,21.157,311.407,62.883c95.268,40.295,180.819,97.973,254.278,171.432c73.459,73.46,131.137,159.011,171.432,254.279
			C1615.843,624.244,1637,729.016,1637,837s-21.157,212.757-62.883,311.407c-40.295,95.268-97.973,180.819-171.432,254.278
			s-159.01,131.137-254.278,171.432C1049.757,1615.843,944.984,1637,837,1637z M837,108.591
			c-401.646,0-728.409,326.763-728.409,728.409c0,401.646,326.763,728.409,728.409,728.409
			c401.646,0,728.409-326.763,728.409-728.409C1565.409,435.354,1238.646,108.591,837,108.591z"/>
	</g>
	<g>
		<g>
			<path d="M838.324,1046.402c-108.388-0.129-217.798,35.087-325.724,104.768v86.865c219.093-160.399,431.283-160.423,648.7-0.074
				v-87.045C1054.631,1081.689,946.19,1046.549,838.324,1046.402z"/>
		</g>
	</g>
</g>
</svg>
